<?xml version="1.0" standalone="no"?>
<!DOCTYPE svg PUBLIC "-//W3C//DTD SVG 20010904//EN"
 "http://www.w3.org/TR/2001/REC-SVG-20010904/DTD/svg10.dtd">
<svg version="1.0" xmlns="http://www.w3.org/2000/svg"
 width="430.000000pt" height="430.000000pt" viewBox="0 0 430.000000 430.000000"
 preserveAspectRatio="xMidYMid meet">
<metadata>
Created by potrace 1.11, written by Peter Selinger 2001-2013
</metadata>
<g transform="translate(0.000000,430.000000) scale(0.100000,-0.100000)"
fill="#000000" stroke="none">
<path d="M391 3043 c-21 -11 -39 -30 -48 -52 -14 -33 -14 -41 2 -87 25 -74 19
-88 -35 -92 -25 -2 -48 -8 -52 -15 -3 -6 -4 -126 -1 -268 l6 -256 -42 -38
c-70 -64 -92 -129 -71 -214 24 -99 130 -181 235 -181 l50 0 1 -48 c2 -59 20
-95 71 -144 47 -45 79 -58 147 -58 41 0 62 7 99 30 l48 30 537 0 537 -1 62
-32 c204 -107 217 -116 248 -170 66 -115 196 -128 289 -28 l30 31 710 0 c657
0 714 1 746 18 55 27 63 56 67 237 3 88 6 166 8 172 3 9 25 13 65 13 51 0 65
4 85 24 46 46 45 129 -3 173 -21 20 -26 31 -23 68 4 70 -42 135 -96 135 -12 0
-25 5 -28 10 -4 6 -6 113 -6 239 0 176 -3 232 -13 246 -13 18 -41 19 -506 23
-492 3 -493 3 -512 25 -10 12 -25 37 -33 55 l-14 32 -83 0 c-85 0 -108 -8
-108 -40 0 -9 -12 -27 -26 -41 l-26 -24 -721 -5 -721 -5 -12 -23 c-18 -36 -19
-36 -91 0 -60 29 -77 33 -148 32 -78 0 -133 -17 -187 -56 -15 -10 -21 -10 -35
0 -62 44 -79 50 -157 57 -44 4 -84 9 -87 11 -4 2 2 21 13 41 30 58 20 118 -26
160 -41 38 -89 43 -145 16z m106 -35 c27 -25 30 -64 7 -96 -11 -16 -13 -34 -8
-67 9 -63 30 -75 127 -75 73 0 80 -2 108 -29 19 -20 29 -40 29 -60 0 -17 2
-31 5 -31 4 0 23 16 43 36 54 52 126 86 198 92 85 6 167 -30 235 -107 l49 -55
0 82 0 82 720 -7 719 -6 41 39 c23 21 46 49 51 62 7 19 14 21 51 18 24 -3 46
-5 51 -5 4 -1 7 -7 7 -14 0 -7 20 -33 45 -57 l44 -43 491 7 490 6 0 -95 0 -95
-30 -7 -30 -6 25 -23 c14 -13 25 -35 26 -51 3 -90 -4 -230 -12 -245 -8 -14 -6
-18 10 -18 11 0 23 5 26 10 3 6 22 10 41 10 47 0 78 -32 70 -71 -19 -94 -20
-88 13 -106 17 -10 36 -31 42 -46 10 -24 9 -32 -8 -55 -38 -51 -123 -34 -123
25 0 27 -16 30 -42 6 -16 -15 -18 -36 -18 -235 l0 -220 -29 -29 -29 -29 -344
-1 c-189 0 -521 0 -738 1 l-395 1 -19 -36 c-36 -66 -114 -85 -177 -42 -19 12
-39 36 -44 53 -15 47 -29 59 -118 103 -45 22 -93 51 -106 65 -14 14 -34 26
-47 26 -12 0 -27 7 -34 15 -11 13 -89 15 -587 15 l-575 0 -35 -30 c-32 -29
-58 -36 -112 -31 -96 9 -160 126 -116 211 15 28 14 30 -10 46 -20 13 -30 14
-61 4 -118 -39 -243 48 -244 169 0 54 36 118 81 144 l39 22 0 268 0 267 24 0
c38 0 67 30 73 78 3 26 1 47 -6 56 -23 27 -16 77 13 103 34 29 73 29 103 1z"/>
<path d="M418 2989 c-22 -12 -23 -52 -3 -69 11 -9 15 -32 15 -80 0 -60 -3 -69
-23 -83 -13 -8 -37 -17 -53 -19 l-29 -3 -3 -160 c-2 -88 0 -197 3 -242 l7 -83
74 0 74 0 0 110 c0 86 3 110 14 110 7 0 36 -49 64 -110 l51 -110 71 0 c38 0
70 2 70 5 0 3 -18 42 -41 86 -40 80 -44 109 -15 109 27 0 36 36 36 138 0 137
-7 145 -118 143 -59 -1 -90 3 -114 15 -44 22 -48 30 -48 97 0 44 5 62 20 77
26 26 25 45 -2 64 -26 19 -27 19 -50 5z m278 -335 c-5 -12 -9 -12 -26 -2 -20
13 -20 13 2 30 20 15 23 15 26 2 2 -8 1 -22 -2 -30z m-162 30 c44 -17 -6 -29
-64 -16 -23 5 -22 6 10 12 19 4 36 8 37 9 1 0 8 -2 17 -5z m46 -14 c0 -5 -2
-10 -4 -10 -3 0 -8 5 -11 10 -3 6 -1 10 4 10 6 0 11 -4 11 -10z m-12 -92 l3
-38 -45 0 -46 0 0 41 0 40 43 -3 c41 -3 42 -4 45 -40z m126 -88 c-3 -3 -23 -5
-45 -6 -36 0 -37 1 -21 16 9 10 22 15 28 13 11 -4 23 36 25 86 1 14 5 -3 10
-39 4 -35 6 -67 3 -70z m-257 58 c-3 -7 -5 -2 -5 12 0 14 2 19 5 13 2 -7 2
-19 0 -25z m130 -91 c2 -16 13 -45 23 -65 11 -20 20 -43 20 -50 0 -9 6 -12 16
-8 12 5 15 2 10 -11 -5 -13 -4 -15 4 -7 8 8 4 25 -15 61 -27 55 -31 78 -15 88
6 4 10 3 9 -2 -5 -27 2 -53 12 -47 9 5 10 -1 5 -20 -4 -17 -3 -25 3 -22 10 7
33 -49 23 -59 -4 -3 1 -3 10 0 11 4 20 -1 28 -15 11 -21 10 -22 -32 -19 -43 3
-43 4 -76 74 -18 38 -34 78 -35 88 -1 9 -4 17 -8 17 -4 0 -10 7 -13 16 -4 11
-1 14 11 12 9 -2 18 -15 20 -31z m-110 -162 c-2 -5 -25 -11 -50 -11 -47 -1
-47 -1 -26 17 26 22 35 24 42 7 3 -7 6 -2 7 12 1 24 1 24 15 5 9 -10 14 -24
12 -30z"/>
<path d="M2843 2842 c-2 -10 -18 -26 -34 -36 -89 -53 -73 -190 28 -225 35 -13
46 -13 79 0 50 19 84 69 84 122 0 36 -6 47 -50 88 -27 26 -50 52 -50 58 0 19
-51 13 -57 -7z m47 -47 c0 -33 -4 -45 -15 -45 -11 0 -15 12 -15 45 0 33 4 45
15 45 11 0 15 -12 15 -45z m-50 -10 c0 -2 -11 -15 -25 -29 -36 -36 -33 -80 6
-117 37 -35 69 -37 103 -6 39 34 43 77 12 114 -29 34 -32 43 -14 43 27 0 58
-43 58 -81 0 -74 -41 -119 -109 -119 -36 0 -96 48 -105 84 -10 42 29 116 61
116 7 0 13 -2 13 -5z m92 -61 c16 -34 -6 -75 -46 -85 -22 -6 -33 -3 -52 16
-25 25 -29 41 -18 69 5 13 14 15 39 10 19 -3 35 -1 39 5 12 18 26 13 38 -15z"/>
<path d="M1324 2725 c-5 -11 1 -458 5 -472 1 -2 89 -3 196 -3 182 0 195 1 205
19 14 27 13 194 -2 209 -9 9 -9 18 0 37 7 14 12 59 12 99 0 59 -4 78 -21 100
l-20 26 -185 0 c-156 0 -186 -2 -190 -15z m54 -79 c-7 -11 -11 -28 -10 -36 3
-13 2 -13 -7 0 -6 8 -11 33 -11 54 0 38 0 39 20 21 16 -15 17 -21 8 -39z m330
-43 c-3 -86 -4 -88 -28 -90 -14 0 -29 -1 -34 -2 -5 -1 -2 -8 5 -18 12 -14 12
-16 -1 -11 -20 6 -26 48 -7 48 8 0 20 13 27 30 7 16 16 27 21 24 5 -3 8 10 8
28 -1 18 -3 25 -6 16 -2 -10 -8 -18 -13 -18 -5 0 -7 7 -3 16 3 9 0 20 -7 24
-11 7 -11 11 -1 24 8 9 20 16 28 16 11 0 13 -17 11 -87z m-228 68 c0 -5 -9
-11 -20 -14 -13 -3 -20 0 -20 9 0 8 9 14 20 14 11 0 20 -4 20 -9z m79 -4 c-14
-14 -72 -10 -63 4 3 5 21 9 40 9 28 0 32 -2 23 -13z m66 -8 c11 -17 0 -20 -21
-4 -17 13 -17 14 -2 15 9 0 20 -5 23 -11z m-50 -79 c0 -32 -3 -35 -33 -38 -40
-4 -62 12 -62 43 0 28 13 35 60 32 33 -2 35 -4 35 -37z m51 6 c0 -15 -5 -21
-10 -16 -5 5 -6 16 -3 24 9 23 15 19 13 -8z m-258 -71 c2 -23 -1 -34 -8 -30
-5 3 -10 22 -10 41 0 46 15 36 18 -11z m252 -38 c0 -17 -2 -19 -9 -8 -5 8 -18
12 -30 8 -28 -7 -27 7 2 20 28 13 37 8 37 -20z m-96 15 c2 -4 -13 -8 -34 -10
-21 -1 -41 1 -44 6 -2 4 13 8 35 9 21 1 41 -1 43 -5z m170 -43 c5 -4 11 -45
13 -90 l4 -81 -111 7 c-110 7 -186 8 -225 3 -17 -3 -20 3 -21 32 -1 19 2 42 7
50 7 12 8 10 9 -7 0 -24 37 -69 47 -59 3 3 6 22 7 42 1 21 7 39 14 42 9 3 11
-5 7 -28 -4 -20 -2 -29 5 -25 5 3 10 2 10 -4 0 -5 -6 -12 -12 -14 -14 -6 5 -8
97 -12 94 -3 101 0 119 56 15 44 15 52 2 64 -25 25 -47 -7 -41 -58 4 -40 4
-40 -7 6 -14 64 2 100 41 91 14 -4 30 -10 35 -15z m-116 -42 l3 -38 -48 3
c-46 3 -48 4 -51 35 -3 29 -1 32 30 36 58 7 63 4 66 -36z m-211 1 c-3 -7 -5
-2 -5 12 0 14 2 19 5 13 2 -7 2 -19 0 -25z m80 0 c-3 -8 -6 -5 -6 6 -1 11 2
17 5 13 3 -3 4 -12 1 -19z"/>
<path d="M1677 2361 c-4 -17 -3 -21 5 -13 5 5 8 16 6 23 -3 8 -7 3 -11 -10z"/>
<path d="M2312 2683 l3 -58 57 -3 58 -3 2 -187 3 -187 80 0 80 0 0 185 0 185
63 3 62 3 0 59 0 60 -205 0 -206 0 3 -57z m47 7 c10 -5 21 -16 25 -25 4 -11
-2 -15 -24 -15 -25 0 -30 4 -30 25 0 28 3 29 29 15z m335 1 c11 -17 -6 -41
-28 -41 -34 0 -39 12 -14 32 26 20 34 22 42 9z m-286 -36 c-3 -3 -9 2 -12 12
-6 14 -5 15 5 6 7 -7 10 -15 7 -18z m72 -8 c0 -5 -4 -5 -10 -2 -5 3 -10 14
-10 23 0 15 2 15 10 2 5 -8 10 -19 10 -23z m140 24 c0 -6 -4 -13 -10 -16 -5
-3 -10 -2 -10 4 0 5 -9 9 -20 8 -11 -1 -20 -6 -20 -11 0 -5 -3 -7 -6 -3 -3 3
-3 10 1 16 8 13 65 15 65 2z m-79 -114 c-8 -8 -11 -7 -11 4 0 20 13 34 18 19
3 -7 -1 -17 -7 -23z m26 11 c-3 -8 -6 -5 -6 6 -1 11 2 17 5 13 3 -3 4 -12 1
-19z m0 -125 c-3 -10 -5 -4 -5 12 0 17 2 24 5 18 2 -7 2 -21 0 -30z m-20 -55
c-3 -8 -6 -5 -6 6 -1 11 2 17 5 13 3 -3 4 -12 1 -19z m-48 -85 c1 -17 -5 -23
-19 -23 -15 0 -20 7 -20 25 0 14 5 25 10 25 6 0 10 8 11 18 0 14 2 14 9 -3 5
-11 9 -30 9 -42z m71 2 c0 -20 -5 -25 -25 -25 -27 0 -33 18 -13 38 20 20 38
14 38 -13z"/>
<path d="M3100 2733 c-58 -11 -60 -17 -60 -243 0 -162 3 -210 14 -226 14 -18
31 -19 403 -21 393 -2 478 3 494 28 5 8 9 64 9 125 0 92 -3 114 -17 125 -11
10 -52 15 -125 17 l-108 4 0 39 0 38 123 3 122 3 0 55 0 55 -189 -1 c-173 0
-190 -2 -202 -19 -10 -13 -14 -51 -14 -131 0 -143 1 -144 147 -144 l103 0 0
-35 c0 -21 -5 -35 -12 -36 -18 -1 -341 -1 -476 0 l-113 1 3 123 3 122 90 2
c50 1 95 2 101 2 12 1 59 100 51 107 -6 6 -317 12 -347 7z m296 -70 c-12 -23
-16 -25 -21 -11 -4 10 1 24 12 35 23 24 28 12 9 -24z m-302 21 c8 -22 -4 -40
-15 -23 -11 18 -11 39 0 39 5 0 12 -7 15 -16z m510 -16 c-4 -6 -10 -5 -15 3
-14 22 -10 33 6 19 8 -7 12 -17 9 -22z m-434 -2 c0 -3 -4 -8 -10 -11 -5 -3
-10 -1 -10 4 0 6 5 11 10 11 6 0 10 -2 10 -4z m87 -2 c-3 -3 -12 -4 -19 -1 -8
3 -5 6 6 6 11 1 17 -2 13 -5z m681 -19 c-3 -3 -9 2 -12 12 -6 14 -5 15 5 6 7
-7 10 -15 7 -18z m-335 -150 c-10 -7 -22 -11 -27 -8 -5 4 -2 11 7 18 9 7 13
16 9 21 -4 4 1 2 11 -5 16 -13 16 -14 0 -26z m54 13 c-3 -8 -6 -5 -6 6 -1 11
2 17 5 13 3 -3 4 -12 1 -19z m-563 -149 c2 -13 5 -32 5 -42 1 -12 5 -16 14
-11 8 5 8 2 -2 -9 -18 -22 -41 -22 -41 1 0 26 12 93 16 89 2 -2 6 -14 8 -28z
m61 11 c3 -5 1 -10 -4 -10 -6 0 -11 5 -11 10 0 6 2 10 4 10 3 0 8 -4 11 -10z
m777 -32 c-7 -7 -12 -8 -12 -2 0 14 12 26 19 19 2 -3 -1 -11 -7 -17z m-100
-15 c-10 -4 -10 -8 3 -17 13 -9 9 -11 -20 -13 -40 -3 -51 23 -12 30 32 6 44 6
29 0z m98 -17 c0 -8 -4 -18 -10 -21 -5 -3 -10 -1 -10 5 0 7 -7 9 -16 6 -14 -5
-15 -4 -4 9 16 19 40 20 40 1z m-666 -8 c-3 -4 -20 -8 -37 -7 -24 0 -27 2 -14
8 24 9 57 9 51 -1z m431 2 c3 -5 1 -10 -4 -10 -6 0 -11 5 -11 10 0 6 2 10 4
10 3 0 8 -4 11 -10z m75 0 c0 -5 -10 -10 -22 -10 -19 0 -20 2 -8 10 19 13 30
13 30 0z m-313 -6 c-3 -3 -12 -4 -19 -1 -8 3 -5 6 6 6 11 1 17 -2 13 -5z m190
0 c-3 -3 -12 -4 -19 -1 -8 3 -5 6 6 6 11 1 17 -2 13 -5z"/>
<path d="M2052 2698 l-33 -29 -34 21 c-28 17 -37 19 -59 9 -22 -10 -26 -19
-26 -55 0 -43 -1 -44 -39 -50 -32 -5 -42 -12 -50 -36 -9 -24 -7 -32 9 -48 11
-11 25 -20 30 -20 17 0 11 -36 -10 -63 -17 -21 -18 -30 -9 -51 10 -21 20 -26
58 -28 43 -3 46 -5 52 -37 12 -56 66 -71 95 -26 20 30 36 31 73 4 23 -17 31
-18 54 -8 22 10 27 19 29 58 3 43 5 46 33 49 56 6 76 68 30 92 -29 16 -31 31
-8 70 14 24 15 34 5 54 -10 22 -18 26 -52 26 -35 0 -42 4 -51 28 -19 47 -24
55 -45 62 -14 6 -29 0 -52 -22z m73 -50 c12 -60 16 -68 36 -68 11 0 28 6 39
12 14 9 22 10 31 1 8 -8 5 -19 -11 -41 -26 -35 -21 -63 16 -86 20 -14 22 -20
14 -36 -6 -11 -20 -20 -31 -20 -41 0 -61 -19 -57 -56 4 -46 -17 -59 -53 -33
-37 26 -56 24 -83 -8 -29 -33 -56 -26 -56 15 0 43 -21 66 -55 59 -51 -9 -73
15 -40 43 22 19 18 55 -10 81 -35 34 -32 51 8 47 17 -2 34 2 35 7 2 6 8 16 14
22 6 7 7 28 4 47 -5 25 -3 35 8 39 9 4 17 -2 21 -14 4 -12 16 -20 33 -21 44
-2 76 3 87 13 7 7 4 8 -7 4 -22 -9 -23 3 -2 26 23 25 50 9 59 -33z"/>
<path d="M1979 2551 c-36 -37 -37 -70 -4 -128 14 -23 28 -43 31 -43 3 0 2 6
-2 13 -5 8 -4 9 5 2 13 -13 83 -7 75 6 -5 8 10 13 29 10 5 -1 6 3 2 9 -3 5 1
20 9 32 20 28 11 64 -22 101 -36 38 -84 37 -123 -2z m114 -19 c23 -21 21 -61
-5 -89 -40 -43 -108 -18 -108 40 0 37 7 49 35 65 23 13 52 7 78 -16z"/>
<path d="M1000 2705 c-10 -12 -16 -13 -26 -4 -11 9 -15 7 -20 -5 -4 -10 -13
-14 -24 -11 -11 3 -20 0 -24 -10 -3 -8 -15 -15 -26 -15 -14 0 -20 -6 -18 -17
2 -10 -3 -18 -12 -18 -8 0 -16 -10 -18 -22 -2 -13 -8 -23 -14 -23 -6 0 -8 -9
-5 -20 3 -10 -1 -25 -9 -31 -11 -9 -12 -15 -2 -26 9 -11 9 -17 -3 -24 -12 -8
-11 -11 3 -22 11 -9 15 -21 11 -35 -4 -16 -1 -22 12 -22 12 0 15 -5 10 -20 -5
-16 -2 -20 14 -20 15 0 21 -6 21 -21 0 -15 5 -19 15 -15 8 3 19 -3 25 -13 6
-13 17 -17 30 -14 12 3 20 0 20 -7 0 -7 8 -9 21 -5 13 5 25 2 29 -6 7 -10 11
-10 24 0 8 7 20 10 26 6 6 -4 17 -1 25 5 8 6 19 9 24 6 6 -4 15 3 21 14 6 11
17 20 25 20 8 0 15 7 15 15 0 9 9 15 21 15 16 0 20 5 16 19 -3 12 1 22 10 25
9 4 13 13 9 22 -3 9 -3 21 1 27 11 18 11 77 0 77 -5 0 -6 11 -3 25 5 18 2 25
-9 25 -10 0 -15 9 -15 26 0 19 -4 25 -14 21 -10 -4 -16 2 -18 16 -2 15 -9 21
-20 19 -11 -2 -18 3 -18 14 0 12 -6 15 -25 10 -18 -5 -25 -2 -25 9 0 17 -16
20 -25 4 -5 -7 -13 -5 -25 6 -15 14 -18 14 -30 0z m74 -49 c19 -8 37 -19 40
-25 9 -14 -62 -91 -84 -91 -20 0 -70 70 -70 99 0 31 59 40 114 17z m-119 -86
c14 -28 23 -55 20 -59 -8 -14 -105 -25 -117 -13 -14 14 36 122 56 122 9 0 27
-23 41 -50z m220 0 c8 -16 15 -52 15 -80 0 -47 -2 -50 -25 -50 -24 0 -105 46
-105 59 0 9 29 51 53 79 27 30 43 28 62 -8z m-128 -66 c8 -21 -19 -46 -40 -38
-17 6 -23 35 -10 47 12 13 44 7 50 -9z m-59 -98 c2 -32 -2 -64 -7 -69 -23 -23
-121 60 -121 101 0 18 39 32 85 29 l40 -2 3 -59z m172 -1 c0 -20 -30 -46 -78
-67 -63 -28 -76 -20 -68 44 10 76 16 80 87 56 32 -11 59 -26 59 -33z"/>
<path d="M2797 2543 c-4 -3 -7 -93 -7 -199 0 -155 -3 -195 -14 -207 -13 -12
-110 -14 -672 -13 -603 2 -657 4 -666 19 -13 24 -61 47 -98 47 -42 0 -76 -24
-93 -69 -13 -33 -24 -40 -84 -64 -82 -32 -83 -32 -83 -7 0 12 -9 24 -23 29
-13 5 -35 25 -51 45 l-27 36 -156 0 c-130 0 -159 3 -174 16 -24 21 -51 11 -47
-17 5 -33 36 -48 52 -26 11 14 30 17 132 17 162 0 185 -5 212 -44 12 -18 22
-35 22 -39 0 -4 -56 -7 -125 -7 -77 0 -125 4 -125 10 0 17 -47 11 -54 -6 -12
-31 42 -62 59 -34 10 17 240 13 254 -4 7 -8 8 -17 3 -20 -5 -3 -87 -35 -181
-70 -145 -54 -176 -63 -196 -54 -36 16 -90 1 -119 -33 -37 -44 -36 -101 3
-139 52 -52 112 -52 161 1 l27 31 594 -7 c494 -6 596 -9 605 -21 6 -8 21 -14
34 -14 12 0 31 -11 42 -25 11 -14 50 -41 87 -59 119 -59 151 -83 151 -114 0
-70 100 -103 146 -48 13 15 24 35 24 44 0 10 20 52 45 94 25 43 45 80 45 83 0
13 -26 2 -80 -35 -32 -22 -66 -40 -74 -40 -8 0 -29 20 -46 45 -25 36 -29 49
-20 64 13 26 13 107 -1 133 -9 17 -6 28 18 62 16 22 36 42 45 44 9 2 41 -13
72 -33 102 -65 109 -58 41 42 -24 37 -42 70 -39 75 3 4 84 8 179 8 164 0 175
-1 185 -20 14 -26 61 -50 98 -50 37 0 80 34 98 76 14 34 13 44 -13 102 -11 25
-14 74 -13 205 1 94 1 178 1 185 -1 13 -141 18 -154 5z m131 -266 l-3 -82 -52
-1 -53 -1 0 164 c0 89 4 163 9 163 5 0 14 -6 20 -14 15 -18 52 -12 66 9 11 17
18 -100 13 -238z m-1526 -144 c58 -51 4 -141 -76 -126 -20 4 -32 16 -43 41
-20 49 -10 77 34 95 39 15 57 13 85 -10z m1498 16 c0 -4 9 -11 20 -14 30 -10
41 -37 30 -77 -17 -59 -91 -78 -135 -33 -30 29 -33 75 -7 98 29 27 92 44 92
26z m-661 -72 c-9 -16 -36 -17 -394 -17 -356 1 -385 2 -385 18 0 16 29 17 394
17 374 0 394 -1 385 -18z m133 6 c22 -20 24 -76 2 -97 -29 -30 -114 -12 -114
24 0 5 -2 15 -5 22 -3 8 4 26 15 41 25 32 73 36 102 10z m388 -5 c0 -16 -15
-18 -173 -18 -153 0 -173 2 -183 18 -10 16 0 17 172 17 169 0 184 -1 184 -17z
m-2000 -28 c0 -5 -7 -10 -16 -10 -8 0 -12 5 -9 10 3 6 10 10 16 10 5 0 9 -4 9
-10z m300 0 c0 -5 -4 -10 -9 -10 -6 0 -13 5 -16 10 -3 6 1 10 9 10 9 0 16 -4
16 -10z m193 -14 c4 -10 -61 -39 -246 -110 -139 -53 -262 -96 -273 -96 -35 0
-38 27 -4 28 16 0 69 16 117 36 48 19 131 51 183 71 52 20 120 47 150 60 66
29 66 29 73 11z m973 -9 c11 -10 -17 -29 -123 -83 -51 -26 -99 -57 -108 -70
-9 -14 -25 -24 -39 -24 -13 0 -29 -7 -36 -15 -11 -13 -85 -15 -558 -15 -300 0
-542 4 -536 8 5 5 107 45 227 90 210 79 218 82 247 67 16 -8 38 -15 50 -15 29
0 77 26 89 49 10 17 30 18 395 17 211 0 388 -4 392 -9z m-122 -125 c-20 -13
-23 -41 -7 -57 14 -14 14 -18 -2 -36 -16 -17 -20 -18 -35 -4 -21 19 -35 19
-54 -1 -15 -14 -16 -14 -16 3 0 29 36 62 60 56 13 -4 20 0 20 9 0 17 20 38 35
38 7 0 7 -3 -1 -8z m117 -42 c18 0 39 -19 39 -36 0 -6 -10 -9 -23 -7 -13 3
-29 -2 -36 -11 -11 -13 -15 -12 -33 6 -15 15 -17 22 -8 28 9 5 11 19 7 41 l-7
34 23 -27 c13 -16 30 -28 38 -28z m-76 10 c0 -22 -29 -18 -33 3 -3 14 1 18 15
15 10 -2 18 -10 18 -18z m-1491 -35 c8 -8 19 -15 24 -15 15 0 23 -46 12 -74
-17 -47 -79 -61 -121 -28 -12 11 -23 25 -25 33 -1 8 -5 21 -8 29 -7 19 1 31
39 52 37 22 59 22 79 3z m1312 -60 c0 -35 -4 -54 -10 -52 -12 4 -20 71 -12 93
11 30 21 12 22 -41z m-643 10 c483 0 577 -2 575 -14 -3 -11 -61 -13 -333 -12
-181 0 -446 1 -587 1 -256 0 -258 0 -258 21 0 15 4 19 13 13 6 -5 272 -9 590
-9z m722 -6 c10 -15 -1 -23 -20 -15 -9 3 -13 10 -10 16 8 13 22 13 30 -1z
m105 -3 c0 -15 -24 -28 -34 -19 -13 14 -5 33 14 33 11 0 20 -6 20 -14z m95 4
c3 -6 -1 -13 -10 -16 -19 -8 -30 0 -20 15 8 14 22 14 30 1z m-170 -60 c31 17
44 6 21 -18 -9 -11 -14 -26 -10 -36 17 -43 -58 1 -84 51 -18 33 -15 36 18 12
26 -20 32 -21 55 -9z m188 6 c-6 -28 -48 -71 -81 -81 -21 -6 -22 -4 -16 19 3
15 1 32 -5 40 -17 20 3 30 30 15 18 -9 26 -7 48 9 14 12 27 21 27 21 1 1 -1
-10 -3 -23z m-113 -52 c0 -8 -9 -14 -20 -14 -19 0 -27 19 -14 33 10 9 34 -4
34 -19z m260 -94 c0 -5 -2 -10 -4 -10 -3 0 -8 5 -11 10 -3 6 -1 10 4 10 6 0
11 -4 11 -10z m-40 -17 c37 -32 20 -109 -25 -113 -58 -6 -85 14 -85 64 0 56
67 86 110 49z"/>
<path d="M1335 2133 c-31 -8 -45 -23 -45 -51 0 -30 25 -51 61 -52 30 0 49 17
49 45 0 22 -26 66 -38 64 -4 -1 -16 -4 -27 -6z m33 -50 c5 -17 -26 -29 -40
-15 -6 6 -7 15 -3 22 9 14 37 9 43 -7z"/>
<path d="M2845 2130 c-4 -6 -11 -8 -16 -5 -9 6 -13 -11 -11 -55 3 -49 68 -68
96 -28 22 31 20 45 -9 73 -25 26 -50 32 -60 15z m53 -47 c5 -17 -26 -29 -40
-15 -6 6 -7 15 -3 22 9 14 37 9 43 -7z"/>
<path d="M2288 2076 c-37 -28 -12 -96 35 -96 34 0 48 14 49 50 2 51 -45 76
-84 46z m55 -41 c-4 -15 -36 -12 -41 3 -3 9 3 13 19 10 13 -1 23 -7 22 -13z"/>
<path d="M588 1819 c-20 -11 -26 -79 -7 -79 5 0 7 -5 4 -10 -8 -13 63 -4 80
10 24 20 -10 90 -44 90 -9 0 -24 -5 -33 -11z m47 -40 c0 -7 -8 -15 -17 -17
-18 -3 -25 18 -11 32 10 10 28 1 28 -15z"/>
<path d="M2303 1559 c-43 -16 -41 -82 3 -93 34 -9 62 1 69 25 14 44 -28 85
-72 68z m37 -39 c0 -11 -7 -20 -15 -20 -15 0 -21 21 -8 33 12 13 23 7 23 -13z"/>
<path d="M760 2225 c-14 -17 -4 -55 14 -55 8 0 19 7 26 15 19 23 330 22 365
-1 20 -13 28 -14 40 -4 8 7 15 21 15 31 0 25 -37 35 -59 15 -25 -23 -342 -24
-361 -1 -16 19 -24 19 -40 0z m30 -20 c0 -8 -4 -15 -10 -15 -5 0 -10 7 -10 15
0 8 5 15 10 15 6 0 10 -7 10 -15z"/>
<path d="M483 2203 c-3 -7 -12 -13 -21 -13 -12 0 -13 -3 -4 -12 8 -8 9 -15 1
-25 -8 -9 -7 -14 5 -19 9 -3 16 -12 16 -19 0 -7 12 -12 30 -11 17 1 30 7 30
14 0 6 6 12 13 12 8 0 14 12 14 30 0 18 -6 30 -14 30 -7 0 -13 6 -13 14 0 17
-51 16 -57 -1z m43 -34 c10 -17 -13 -36 -27 -22 -12 12 -4 33 11 33 5 0 12 -5
16 -11z"/>
<path d="M3152 2208 c-16 -16 -15 -23 4 -43 15 -14 18 -14 40 0 20 13 80 15
424 15 299 0 405 -3 420 -12 16 -10 23 -10 35 3 19 19 10 49 -14 49 -9 0 -23
-6 -30 -12 -9 -10 -106 -13 -416 -13 -310 0 -407 3 -417 13 -15 15 -31 15 -46
0z m918 -19 c0 -5 -7 -9 -15 -9 -15 0 -20 12 -9 23 8 8 24 -1 24 -14z m-889
-2 c-1 -12 -15 -9 -19 4 -3 6 1 10 8 8 6 -3 11 -8 11 -12z"/>
<path d="M3054 2176 c-9 -23 3 -46 23 -46 10 -1 30 -19 45 -40 l28 -40 390 0
c292 0 395 -3 410 -12 16 -10 23 -10 37 5 16 16 16 18 0 34 -14 14 -21 15 -37
6 -18 -12 -149 -14 -650 -13 l-146 0 -19 33 c-11 17 -22 43 -25 57 -6 29 -47
41 -56 16z m42 -7 c10 -17 -13 -36 -27 -22 -12 12 -4 33 11 33 5 0 12 -5 16
-11z m879 -119 c-5 -8 -11 -8 -17 -2 -6 6 -7 16 -3 22 5 8 11 8 17 2 6 -6 7
-16 3 -22z"/>
<path d="M292 2153 c3 -24 -1 -28 -24 -31 -33 -4 -34 -9 -11 -34 17 -19 16
-20 -7 -38 -28 -21 -21 -35 18 -35 23 0 27 -4 24 -27 -3 -32 12 -36 40 -11 19
17 20 16 37 -5 19 -26 31 -20 31 15 0 19 5 23 30 23 36 0 38 9 8 34 l-22 19
24 19 c26 21 20 33 -18 33 -22 0 -27 5 -28 25 -2 43 -3 44 -26 20 l-22 -23
-14 21 c-21 32 -43 28 -40 -5z m82 -58 c10 -11 13 -22 7 -38 -10 -28 -51 -35
-68 -11 -17 23 -16 29 3 48 20 20 38 20 58 1z"/>
<path d="M3220 2135 c-7 -8 -10 -22 -6 -30 6 -17 41 -20 51 -5 4 6 145 10 390
10 l384 0 26 -37 c14 -21 25 -47 25 -59 0 -26 18 -35 43 -22 26 13 21 36 -13
53 -16 8 -34 24 -40 34 -28 53 -13 51 -426 51 -232 0 -393 4 -404 10 -13 7
-21 6 -30 -5z m30 -20 c0 -8 -4 -15 -10 -15 -5 0 -10 7 -10 15 0 8 5 15 10 15
6 0 10 -7 10 -15z m880 -101 c0 -17 -22 -14 -28 4 -2 7 3 12 12 12 9 0 16 -7
16 -16z"/>
<path d="M520 2059 c0 -16 -4 -19 -20 -14 -21 7 -27 -4 -10 -21 8 -8 6 -15 -5
-24 -21 -17 -19 -30 5 -30 17 0 19 -5 14 -25 -7 -27 4 -33 25 -12 10 10 15 9
25 -5 17 -23 26 -23 26 2 0 15 7 20 25 20 27 0 32 9 13 28 -9 9 -8 15 8 27 19
14 19 15 -3 21 -14 4 -23 14 -23 25 0 15 -5 18 -24 13 -13 -3 -27 -1 -30 5
-12 18 -26 12 -26 -10z m50 -44 c16 -19 6 -45 -19 -45 -23 0 -35 28 -20 46 15
18 24 18 39 -1z"/>
<path d="M3047 2014 c-4 -4 -7 -105 -7 -224 0 -171 3 -220 14 -236 13 -17 30
-19 186 -22 144 -3 175 -1 196 13 l24 16 -2 227 -3 227 -77 3 -78 3 0 -186 0
-186 -47 3 -48 3 0 180 0 180 -75 3 c-42 1 -79 0 -83 -4z m53 -129 c16 -20 39
-19 62 2 17 16 18 11 18 -113 0 -90 -4 -134 -12 -143 -9 -9 -9 -12 -1 -7 6 3
13 1 15 -4 3 -11 103 -21 126 -13 9 4 12 43 12 150 l0 144 23 -7 c28 -10 46
-10 75 0 l22 7 -4 -161 c-3 -103 -8 -166 -16 -174 -10 -10 -288 -17 -332 -7
-16 3 -18 19 -18 172 0 93 4 169 9 169 5 0 14 -7 21 -15z"/>
<path d="M2572 1773 l3 -238 203 -3 c136 -2 202 1 202 8 0 6 -11 33 -25 60
l-25 50 -100 0 -100 0 -2 178 -3 177 -78 3 -77 3 2 -238z m53 151 c0 -18 -3
-34 -7 -34 -5 0 -8 6 -8 14 0 7 -3 29 -6 47 -6 29 -4 32 7 21 8 -7 14 -29 14
-48z m75 30 c0 -14 -4 -23 -10 -19 -6 4 -11 -39 -12 -122 0 -78 -3 -110 -7
-83 -11 85 -6 215 9 233 20 21 20 21 20 -9z m-78 -151 c-3 -16 -7 -22 -10 -15
-4 13 4 42 11 42 2 0 2 -12 -1 -27z m-2 -70 c-11 -17 -11 -17 -6 0 3 10 6 24
7 30 0 9 2 9 5 0 3 -7 0 -20 -6 -30z m8 -88 c0 -43 -5 -69 -14 -76 -11 -9 -14
-7 -14 12 0 20 22 129 26 129 1 0 2 -29 2 -65z m67 -45 c3 -5 1 -10 -4 -10 -6
0 -11 5 -11 10 0 6 2 10 4 10 3 0 8 -4 11 -10z m239 -27 c7 -17 -6 -16 -30 1
-18 14 -18 15 3 13 12 -1 25 -7 27 -14z"/>
<path d="M3540 1770 l0 -240 189 0 190 0 20 26 c17 22 21 41 21 108 0 46 -5
87 -11 93 -8 8 -8 17 0 31 15 28 14 195 -1 210 -9 9 -69 12 -210 12 l-198 0 0
-240z m59 196 c6 -7 8 -21 5 -31 -6 -15 -9 -15 -20 6 -7 13 -13 27 -14 32 0
12 17 8 29 -7z m323 -18 c-7 -7 -12 -8 -12 -2 0 14 12 26 19 19 2 -3 -1 -11
-7 -17z m-97 1 c5 -7 -5 -8 -32 -3 -51 9 -54 14 -10 14 20 0 39 -5 42 -11z
m-30 -89 c0 -35 0 -35 -45 -35 -39 0 -45 3 -48 23 -6 43 4 53 50 50 42 -3 43
-4 43 -38z m-198 -2 c-3 -7 -5 -2 -5 12 0 14 2 19 5 13 2 -7 2 -19 0 -25z
m310 -10 c-3 -7 -5 -2 -5 12 0 14 2 19 5 13 2 -7 2 -19 0 -25z m-310 -85 c-2
-16 -4 -3 -4 27 0 30 2 43 4 28 2 -16 2 -40 0 -55z m250 18 c-5 -2 -4 -7 2
-11 7 -4 -3 -7 -21 -8 -33 0 -33 0 -10 15 12 9 23 27 23 42 1 25 2 25 8 -4 4
-16 3 -32 -2 -34z m83 36 c0 -9 -12 -14 -31 -14 -23 0 -27 3 -15 9 9 5 21 6
26 3 6 -3 10 -1 10 4 0 6 2 11 5 11 3 0 5 -6 5 -13z m-333 -119 c-3 -7 -5 -2
-5 12 0 14 2 19 5 13 2 -7 2 -19 0 -25z m201 -12 c-3 -30 -5 -31 -48 -31 -43
0 -45 1 -48 32 -3 35 8 41 66 35 30 -4 33 -7 30 -36z m-196 -58 c-3 -11 1 -24
8 -28 11 -7 11 -11 1 -24 -8 -9 -20 -16 -27 -16 -16 0 -19 36 -4 45 6 3 10 21
10 38 0 22 3 28 9 18 5 -7 6 -22 3 -33z m244 -17 c-9 -10 -13 -21 -9 -25 4 -4
-1 -4 -11 0 -16 6 -17 8 -2 16 9 5 16 17 16 27 0 24 14 37 18 16 2 -9 -3 -24
-12 -34z m81 -13 c-3 -8 -6 -5 -6 6 -1 11 2 17 5 13 3 -3 4 -12 1 -19z m-3
-30 c-3 -4 -9 -8 -15 -8 -5 0 -9 4 -9 8 0 5 7 9 15 9 8 0 12 -4 9 -9z"/>
<path d="M3590 1579 c0 -5 5 -7 10 -4 6 3 10 8 10 11 0 2 -4 4 -10 4 -5 0 -10
-5 -10 -11z"/>
</g>
</svg>
